<mxfile host="app.diagrams.net" modified="2024-04-04T17:58:47.249Z" agent="Mozilla/5.0 (Windows NT 10.0; Win64; x64) AppleWebKit/537.36 (KHTML, like Gecko) Chrome/123.0.0.0 Safari/537.36" etag="-y8Tn2FwkvN2Id2WwtDv" version="24.2.2" type="device">
  <diagram id="R2lEEEUBdFMjLlhIrx00" name="Page-1">
    <mxGraphModel dx="2649" dy="2036" grid="1" gridSize="10" guides="1" tooltips="1" connect="1" arrows="1" fold="1" page="1" pageScale="1" pageWidth="850" pageHeight="1100" math="0" shadow="0" extFonts="Permanent Marker^https://fonts.googleapis.com/css?family=Permanent+Marker">
      <root>
        <mxCell id="0" />
        <mxCell id="1" parent="0" />
        <mxCell id="a5exqe3Fn3N1X1YNWytJ-15" style="edgeStyle=orthogonalEdgeStyle;rounded=0;orthogonalLoop=1;jettySize=auto;html=1;exitX=0.5;exitY=0;exitDx=0;exitDy=0;shape=link;" edge="1" parent="1" source="a5exqe3Fn3N1X1YNWytJ-4" target="a5exqe3Fn3N1X1YNWytJ-5">
          <mxGeometry relative="1" as="geometry" />
        </mxCell>
        <mxCell id="a5exqe3Fn3N1X1YNWytJ-27" value="N" style="edgeLabel;html=1;align=center;verticalAlign=middle;resizable=0;points=[];" vertex="1" connectable="0" parent="a5exqe3Fn3N1X1YNWytJ-15">
          <mxGeometry x="-0.6893" y="-2" relative="1" as="geometry">
            <mxPoint x="8" as="offset" />
          </mxGeometry>
        </mxCell>
        <mxCell id="a5exqe3Fn3N1X1YNWytJ-28" value="M" style="edgeLabel;html=1;align=center;verticalAlign=middle;resizable=0;points=[];" vertex="1" connectable="0" parent="a5exqe3Fn3N1X1YNWytJ-15">
          <mxGeometry x="0.7869" y="3" relative="1" as="geometry">
            <mxPoint x="13" as="offset" />
          </mxGeometry>
        </mxCell>
        <mxCell id="a5exqe3Fn3N1X1YNWytJ-4" value="Character" style="rounded=0;whiteSpace=wrap;html=1;" vertex="1" parent="1">
          <mxGeometry x="400" y="180" width="120" height="60" as="geometry" />
        </mxCell>
        <mxCell id="a5exqe3Fn3N1X1YNWytJ-5" value="Item" style="rounded=0;whiteSpace=wrap;html=1;" vertex="1" parent="1">
          <mxGeometry x="400" width="120" height="60" as="geometry" />
        </mxCell>
        <mxCell id="a5exqe3Fn3N1X1YNWytJ-6" value="Weapons" style="rounded=0;whiteSpace=wrap;html=1;" vertex="1" parent="1">
          <mxGeometry x="210" y="-340" width="120" height="60" as="geometry" />
        </mxCell>
        <mxCell id="a5exqe3Fn3N1X1YNWytJ-7" value="Armor" style="rounded=0;whiteSpace=wrap;html=1;" vertex="1" parent="1">
          <mxGeometry x="580" y="-340" width="120" height="60" as="geometry" />
        </mxCell>
        <mxCell id="a5exqe3Fn3N1X1YNWytJ-8" value="Talismans" style="rounded=0;whiteSpace=wrap;html=1;" vertex="1" parent="1">
          <mxGeometry x="940" y="-340" width="120" height="60" as="geometry" />
        </mxCell>
        <mxCell id="a5exqe3Fn3N1X1YNWytJ-9" value="Equipment&amp;nbsp;&lt;br&gt;&amp;amp; Magic" style="rounded=0;whiteSpace=wrap;html=1;" vertex="1" parent="1">
          <mxGeometry x="-150" y="-340" width="120" height="60" as="geometry" />
        </mxCell>
        <mxCell id="a5exqe3Fn3N1X1YNWytJ-22" style="edgeStyle=orthogonalEdgeStyle;rounded=0;orthogonalLoop=1;jettySize=auto;html=1;exitX=0;exitY=0.5;exitDx=0;exitDy=0;entryX=1;entryY=0.5;entryDx=0;entryDy=0;endArrow=none;endFill=0;" edge="1" parent="1" source="a5exqe3Fn3N1X1YNWytJ-10" target="a5exqe3Fn3N1X1YNWytJ-12">
          <mxGeometry relative="1" as="geometry" />
        </mxCell>
        <mxCell id="a5exqe3Fn3N1X1YNWytJ-59" value="1" style="edgeLabel;html=1;align=center;verticalAlign=middle;resizable=0;points=[];" vertex="1" connectable="0" parent="a5exqe3Fn3N1X1YNWytJ-22">
          <mxGeometry x="-0.8578" y="1" relative="1" as="geometry">
            <mxPoint y="-11" as="offset" />
          </mxGeometry>
        </mxCell>
        <mxCell id="a5exqe3Fn3N1X1YNWytJ-60" value="N" style="edgeLabel;html=1;align=center;verticalAlign=middle;resizable=0;points=[];" vertex="1" connectable="0" parent="a5exqe3Fn3N1X1YNWytJ-22">
          <mxGeometry x="0.8577" y="-1" relative="1" as="geometry">
            <mxPoint y="-9" as="offset" />
          </mxGeometry>
        </mxCell>
        <mxCell id="a5exqe3Fn3N1X1YNWytJ-24" style="edgeStyle=orthogonalEdgeStyle;rounded=0;orthogonalLoop=1;jettySize=auto;html=1;exitX=0.5;exitY=1;exitDx=0;exitDy=0;entryX=0.5;entryY=0;entryDx=0;entryDy=0;endArrow=none;endFill=0;" edge="1" parent="1" source="a5exqe3Fn3N1X1YNWytJ-10" target="a5exqe3Fn3N1X1YNWytJ-11">
          <mxGeometry relative="1" as="geometry" />
        </mxCell>
        <mxCell id="a5exqe3Fn3N1X1YNWytJ-61" value="1" style="edgeLabel;html=1;align=center;verticalAlign=middle;resizable=0;points=[];" vertex="1" connectable="0" parent="a5exqe3Fn3N1X1YNWytJ-24">
          <mxGeometry x="-0.7514" y="-1" relative="1" as="geometry">
            <mxPoint x="11" as="offset" />
          </mxGeometry>
        </mxCell>
        <mxCell id="a5exqe3Fn3N1X1YNWytJ-63" value="N" style="edgeLabel;html=1;align=center;verticalAlign=middle;resizable=0;points=[];" vertex="1" connectable="0" parent="a5exqe3Fn3N1X1YNWytJ-24">
          <mxGeometry x="0.7831" relative="1" as="geometry">
            <mxPoint x="10" as="offset" />
          </mxGeometry>
        </mxCell>
        <mxCell id="a5exqe3Fn3N1X1YNWytJ-10" value="Locations" style="rounded=0;whiteSpace=wrap;html=1;" vertex="1" parent="1">
          <mxGeometry x="100" y="180" width="120" height="60" as="geometry" />
        </mxCell>
        <mxCell id="a5exqe3Fn3N1X1YNWytJ-69" style="edgeStyle=orthogonalEdgeStyle;rounded=0;orthogonalLoop=1;jettySize=auto;html=1;exitX=1;exitY=0.5;exitDx=0;exitDy=0;entryX=1;entryY=0.5;entryDx=0;entryDy=0;endArrow=none;endFill=0;" edge="1" parent="1" source="a5exqe3Fn3N1X1YNWytJ-70" target="a5exqe3Fn3N1X1YNWytJ-5">
          <mxGeometry relative="1" as="geometry">
            <Array as="points">
              <mxPoint x="760" y="410" />
              <mxPoint x="760" y="30" />
            </Array>
          </mxGeometry>
        </mxCell>
        <mxCell id="a5exqe3Fn3N1X1YNWytJ-73" value="M" style="edgeLabel;html=1;align=center;verticalAlign=middle;resizable=0;points=[];" vertex="1" connectable="0" parent="a5exqe3Fn3N1X1YNWytJ-69">
          <mxGeometry x="0.8553" y="-1" relative="1" as="geometry">
            <mxPoint x="-30" y="-9" as="offset" />
          </mxGeometry>
        </mxCell>
        <mxCell id="a5exqe3Fn3N1X1YNWytJ-11" value="Enemies" style="rounded=0;whiteSpace=wrap;html=1;" vertex="1" parent="1">
          <mxGeometry x="100" y="380" width="120" height="60" as="geometry" />
        </mxCell>
        <mxCell id="a5exqe3Fn3N1X1YNWytJ-23" style="edgeStyle=orthogonalEdgeStyle;rounded=0;orthogonalLoop=1;jettySize=auto;html=1;exitX=1;exitY=0.5;exitDx=0;exitDy=0;entryX=0;entryY=0.5;entryDx=0;entryDy=0;endArrow=none;endFill=0;" edge="1" parent="1" source="a5exqe3Fn3N1X1YNWytJ-42" target="a5exqe3Fn3N1X1YNWytJ-5">
          <mxGeometry relative="1" as="geometry" />
        </mxCell>
        <mxCell id="a5exqe3Fn3N1X1YNWytJ-58" value="N" style="edgeLabel;html=1;align=center;verticalAlign=middle;resizable=0;points=[];" vertex="1" connectable="0" parent="a5exqe3Fn3N1X1YNWytJ-23">
          <mxGeometry x="0.7689" relative="1" as="geometry">
            <mxPoint x="12" y="-10" as="offset" />
          </mxGeometry>
        </mxCell>
        <mxCell id="a5exqe3Fn3N1X1YNWytJ-12" value="Bosses" style="rounded=0;whiteSpace=wrap;html=1;" vertex="1" parent="1">
          <mxGeometry x="-150" y="180" width="120" height="60" as="geometry" />
        </mxCell>
        <mxCell id="a5exqe3Fn3N1X1YNWytJ-35" value="IS-A" style="triangle;whiteSpace=wrap;html=1;rotation=0;direction=south;" vertex="1" parent="1">
          <mxGeometry x="425" y="-120" width="70" height="50" as="geometry" />
        </mxCell>
        <mxCell id="a5exqe3Fn3N1X1YNWytJ-36" value="" style="endArrow=none;html=1;rounded=0;entryX=1;entryY=0.5;entryDx=0;entryDy=0;exitX=0.5;exitY=0;exitDx=0;exitDy=0;" edge="1" parent="1" source="a5exqe3Fn3N1X1YNWytJ-5" target="a5exqe3Fn3N1X1YNWytJ-35">
          <mxGeometry width="50" height="50" relative="1" as="geometry">
            <mxPoint x="300" y="30" as="sourcePoint" />
            <mxPoint x="350" y="-20" as="targetPoint" />
          </mxGeometry>
        </mxCell>
        <mxCell id="a5exqe3Fn3N1X1YNWytJ-37" value="" style="endArrow=none;html=1;rounded=0;entryX=0.5;entryY=1;entryDx=0;entryDy=0;exitX=0;exitY=0.5;exitDx=0;exitDy=0;edgeStyle=orthogonalEdgeStyle;" edge="1" parent="1" source="a5exqe3Fn3N1X1YNWytJ-35" target="a5exqe3Fn3N1X1YNWytJ-9">
          <mxGeometry width="50" height="50" relative="1" as="geometry">
            <mxPoint x="210" y="-100" as="sourcePoint" />
            <mxPoint x="260" y="-150" as="targetPoint" />
          </mxGeometry>
        </mxCell>
        <mxCell id="a5exqe3Fn3N1X1YNWytJ-38" value="" style="endArrow=none;html=1;rounded=0;entryX=0.5;entryY=1;entryDx=0;entryDy=0;exitX=0;exitY=0.5;exitDx=0;exitDy=0;edgeStyle=orthogonalEdgeStyle;" edge="1" parent="1" source="a5exqe3Fn3N1X1YNWytJ-35" target="a5exqe3Fn3N1X1YNWytJ-6">
          <mxGeometry width="50" height="50" relative="1" as="geometry">
            <mxPoint x="470" y="-110" as="sourcePoint" />
            <mxPoint x="170" y="-210" as="targetPoint" />
          </mxGeometry>
        </mxCell>
        <mxCell id="a5exqe3Fn3N1X1YNWytJ-39" value="" style="endArrow=none;html=1;rounded=0;entryX=0.5;entryY=1;entryDx=0;entryDy=0;exitX=0;exitY=0.5;exitDx=0;exitDy=0;edgeStyle=orthogonalEdgeStyle;" edge="1" parent="1" source="a5exqe3Fn3N1X1YNWytJ-35" target="a5exqe3Fn3N1X1YNWytJ-7">
          <mxGeometry width="50" height="50" relative="1" as="geometry">
            <mxPoint x="480" y="-100" as="sourcePoint" />
            <mxPoint x="180" y="-200" as="targetPoint" />
          </mxGeometry>
        </mxCell>
        <mxCell id="a5exqe3Fn3N1X1YNWytJ-40" value="" style="endArrow=none;html=1;rounded=0;entryX=0.5;entryY=1;entryDx=0;entryDy=0;exitX=0;exitY=0.5;exitDx=0;exitDy=0;edgeStyle=orthogonalEdgeStyle;" edge="1" parent="1" source="a5exqe3Fn3N1X1YNWytJ-35" target="a5exqe3Fn3N1X1YNWytJ-8">
          <mxGeometry width="50" height="50" relative="1" as="geometry">
            <mxPoint x="490" y="-90" as="sourcePoint" />
            <mxPoint x="190" y="-190" as="targetPoint" />
          </mxGeometry>
        </mxCell>
        <mxCell id="a5exqe3Fn3N1X1YNWytJ-41" value="" style="edgeStyle=orthogonalEdgeStyle;rounded=0;orthogonalLoop=1;jettySize=auto;html=1;exitX=0.5;exitY=0;exitDx=0;exitDy=0;entryX=0;entryY=0.5;entryDx=0;entryDy=0;endArrow=none;endFill=0;" edge="1" parent="1" source="a5exqe3Fn3N1X1YNWytJ-12" target="a5exqe3Fn3N1X1YNWytJ-42">
          <mxGeometry relative="1" as="geometry">
            <mxPoint x="60" y="180" as="sourcePoint" />
            <mxPoint x="400" y="70" as="targetPoint" />
          </mxGeometry>
        </mxCell>
        <mxCell id="a5exqe3Fn3N1X1YNWytJ-57" value="1" style="edgeLabel;html=1;align=center;verticalAlign=middle;resizable=0;points=[];" vertex="1" connectable="0" parent="a5exqe3Fn3N1X1YNWytJ-41">
          <mxGeometry x="-0.904" y="-2" relative="1" as="geometry">
            <mxPoint x="-12" y="7" as="offset" />
          </mxGeometry>
        </mxCell>
        <mxCell id="a5exqe3Fn3N1X1YNWytJ-42" value="Drops" style="rhombus;whiteSpace=wrap;html=1;" vertex="1" parent="1">
          <mxGeometry x="135" y="5" width="50" height="50" as="geometry" />
        </mxCell>
        <mxCell id="a5exqe3Fn3N1X1YNWytJ-52" style="edgeStyle=orthogonalEdgeStyle;rounded=0;orthogonalLoop=1;jettySize=auto;html=1;exitX=1;exitY=0.5;exitDx=0;exitDy=0;entryX=0;entryY=0.5;entryDx=0;entryDy=0;endArrow=none;endFill=0;" edge="1" parent="1" source="a5exqe3Fn3N1X1YNWytJ-51" target="a5exqe3Fn3N1X1YNWytJ-4">
          <mxGeometry relative="1" as="geometry" />
        </mxCell>
        <mxCell id="a5exqe3Fn3N1X1YNWytJ-53" style="edgeStyle=orthogonalEdgeStyle;rounded=0;orthogonalLoop=1;jettySize=auto;html=1;exitX=0;exitY=0.5;exitDx=0;exitDy=0;entryX=1;entryY=0.5;entryDx=0;entryDy=0;endArrow=none;endFill=0;" edge="1" parent="1" source="a5exqe3Fn3N1X1YNWytJ-51" target="a5exqe3Fn3N1X1YNWytJ-10">
          <mxGeometry relative="1" as="geometry" />
        </mxCell>
        <mxCell id="a5exqe3Fn3N1X1YNWytJ-51" value="Is at" style="rhombus;whiteSpace=wrap;html=1;" vertex="1" parent="1">
          <mxGeometry x="295" y="185" width="50" height="50" as="geometry" />
        </mxCell>
        <mxCell id="a5exqe3Fn3N1X1YNWytJ-71" value="" style="edgeStyle=orthogonalEdgeStyle;rounded=0;orthogonalLoop=1;jettySize=auto;html=1;exitX=1;exitY=0.5;exitDx=0;exitDy=0;entryX=0;entryY=0.5;entryDx=0;entryDy=0;endArrow=none;endFill=0;" edge="1" parent="1" source="a5exqe3Fn3N1X1YNWytJ-11" target="a5exqe3Fn3N1X1YNWytJ-70">
          <mxGeometry relative="1" as="geometry">
            <mxPoint x="250" y="410" as="sourcePoint" />
            <mxPoint x="520" y="70" as="targetPoint" />
            <Array as="points" />
          </mxGeometry>
        </mxCell>
        <mxCell id="a5exqe3Fn3N1X1YNWytJ-72" value="N" style="edgeLabel;html=1;align=center;verticalAlign=middle;resizable=0;points=[];" vertex="1" connectable="0" parent="a5exqe3Fn3N1X1YNWytJ-71">
          <mxGeometry x="-0.8103" y="1" relative="1" as="geometry">
            <mxPoint x="-13" y="-9" as="offset" />
          </mxGeometry>
        </mxCell>
        <mxCell id="a5exqe3Fn3N1X1YNWytJ-70" value="Drops" style="rhombus;whiteSpace=wrap;html=1;" vertex="1" parent="1">
          <mxGeometry x="535" y="385" width="50" height="50" as="geometry" />
        </mxCell>
      </root>
    </mxGraphModel>
  </diagram>
</mxfile>
